<svg xmlns="http://www.w3.org/2000/svg" version="1.1" xmlns:xlink="http://www.w3.org/1999/xlink" xmlns:svgjs="http://svgjs.dev/svgjs" width="1500" height="1500" viewBox="0 0 1500 1500"><rect width="1500" height="1500" fill="#000000"></rect><g transform="matrix(0.6666666666666666,0,0,0.6666666666666666,250.10666666666668,571.1896533333336)"><svg viewBox="0 0 375 134" data-background-color="#ffffff" preserveAspectRatio="xMidYMid meet" height="536" width="1500" xmlns="http://www.w3.org/2000/svg" xmlns:xlink="http://www.w3.org/1999/xlink"><g id="tight-bounds" transform="matrix(1,0,0,1,-0.03976000000000113,0.054199999999980264)"><svg viewBox="0 0 375.07953 133.89192" height="133.89192" width="375.07953"><g><svg></svg></g><g><svg viewBox="0 0 375.07953 133.89192" height="133.89192" width="375.07953"><g transform="matrix(1,0,0,1,-10.22024,-58.809320000000014)"><path d="M10.22 188.391v-129.582h375.08v129.582h-30.534l0-4.155h26.379v-121.272h-366.77v121.272h121.92l0 4.155z" fill="#ffffff" fill-rule="nonzero" stroke="none" stroke-width="1" stroke-linecap="butt" stroke-linejoin="miter" stroke-miterlimit="10" stroke-dasharray="" stroke-dashoffset="0" font-family="none" font-weight="none" font-size="none" text-anchor="none" style="mix-blend-mode: normal" data-fill-palette-color="tertiary"></path><g><path d="M153.149 186.356v3.555h-1.148v-3.541l-3.243-6.005h1.331l0.723 1.402c0.491 0.944 0.883 1.714 1.175 2.309 0.293 0.595 0.463 0.954 0.51 1.076v0l0.071 0.17c0.085-0.236 0.685-1.421 1.799-3.555v0l0.722-1.402h1.331zM164.14 186.342v0c0 1.067-0.302 1.95-0.907 2.648-0.604 0.699-1.435 1.048-2.493 1.048v0c-1.029 0-1.843-0.347-2.442-1.042-0.601-0.693-0.901-1.568-0.9-2.626v0c0-1.067 0.31-1.957 0.929-2.671 0.618-0.712 1.422-1.068 2.413-1.068v0c1.086 0 1.924 0.349 2.516 1.048 0.589 0.699 0.884 1.586 0.884 2.663zM158.559 186.356v0c0 0.746 0.198 1.38 0.595 1.904 0.397 0.525 0.925 0.787 1.586 0.787v0c0.718 0 1.27-0.258 1.657-0.773 0.387-0.514 0.581-1.153 0.581-1.918v0c0-0.793-0.184-1.448-0.552-1.963-0.368-0.514-0.93-0.77-1.686-0.771v0c-0.68 0-1.213 0.264-1.6 0.794-0.387 0.529-0.581 1.176-0.581 1.94zM171.363 182.73v7.181h-1.119v-1.246c-0.378 0.888-1.128 1.331-2.252 1.331v0c-0.708 0-1.268-0.211-1.68-0.632-0.41-0.419-0.615-0.983-0.614-1.691v0-4.943h1.118v4.66c0 0.519 0.132 0.916 0.397 1.19 0.264 0.274 0.623 0.411 1.076 0.41v0c0.595 0 1.07-0.208 1.425-0.623 0.353-0.415 0.53-0.977 0.53-1.685v0-3.952zM174.536 185.988v3.923h-1.119l0.014-7.181h1.105v1.261c0.378-0.888 1.029-1.331 1.954-1.332v0c0.17 0 0.302 0.009 0.397 0.029v0 1.104c-0.198-0.066-0.401-0.099-0.609-0.099v0c-0.5 0-0.916 0.231-1.247 0.694-0.33 0.463-0.496 0.996-0.495 1.601zM186.83 182.73v7.181h-1.119v-1.246c-0.378 0.888-1.128 1.331-2.252 1.331v0c-0.708 0-1.267-0.211-1.677-0.632-0.412-0.419-0.618-0.983-0.618-1.691v0-4.943h1.119v4.66c0 0.519 0.132 0.916 0.397 1.19 0.264 0.274 0.623 0.411 1.076 0.41v0c0.595 0 1.07-0.208 1.425-0.623 0.353-0.415 0.53-0.977 0.53-1.685v0-3.952zM190.073 179.897v10.014h-1.119v-10.014zM195.795 188.665v1.062c-0.312 0.17-0.661 0.255-1.048 0.255v0c-1.416 0-2.125-0.722-2.125-2.167v0-4.178h-1.147v-0.907h1.147v-1.785h1.119v1.785h1.983v0.907h-1.983v4.206c0 0.765 0.359 1.147 1.077 1.147v0c0.368 0 0.694-0.109 0.977-0.325zM198.599 182.73v7.181h-1.118v-7.181zM198.557 179.954c0.142 0.142 0.212 0.316 0.212 0.524 0 0.208-0.071 0.38-0.212 0.516-0.142 0.138-0.316 0.207-0.524 0.206-0.208 0-0.381-0.069-0.518-0.206-0.136-0.136-0.204-0.308-0.204-0.516 0-0.208 0.068-0.382 0.204-0.524 0.138-0.142 0.311-0.212 0.518-0.212 0.208 0 0.382 0.071 0.524 0.212zM210.327 184.982v4.929h-1.119v-4.646c0-1.086-0.458-1.629-1.374-1.628v0c-0.453 0-0.859 0.205-1.218 0.614-0.359 0.412-0.538 0.991-0.538 1.737v0 3.923h-1.119v-4.646c0-1.086-0.458-1.629-1.374-1.628v0c-0.453 0-0.859 0.205-1.218 0.614-0.359 0.412-0.538 0.991-0.538 1.737v0 3.923h-1.105v-7.181h1.105v1.161c0.397-0.84 1.072-1.261 2.025-1.26v0c1.105 0 1.803 0.467 2.096 1.402v0c0.208-0.453 0.499-0.801 0.873-1.042 0.372-0.24 0.789-0.36 1.252-0.36v0c0.746 0 1.308 0.212 1.685 0.637 0.378 0.425 0.567 0.996 0.567 1.714zM214.505 189.047v0c0.51 0 0.916-0.144 1.218-0.433 0.302-0.287 0.453-0.652 0.453-1.097v0-0.92h-1.246c-0.604 0-1.058 0.118-1.36 0.354-0.302 0.236-0.453 0.533-0.453 0.892 0 0.359 0.118 0.649 0.354 0.87 0.236 0.223 0.581 0.334 1.034 0.334zM216.191 189.911v-0.85c-0.368 0.614-1.039 0.921-2.012 0.921v0c-0.67 0-1.211-0.198-1.62-0.595-0.412-0.397-0.618-0.897-0.617-1.501v0c0-0.689 0.263-1.226 0.787-1.609 0.523-0.381 1.238-0.572 2.144-0.573v0h1.303v-0.368c0-0.567-0.127-0.994-0.382-1.283-0.255-0.287-0.685-0.431-1.289-0.431v0c-0.765 0-1.445 0.203-2.039 0.609v0-1.118c0.538-0.33 1.246-0.496 2.124-0.496v0c1.803 0 2.705 0.916 2.705 2.748v0 4.546zM222.876 188.665v1.062c-0.312 0.17-0.661 0.255-1.048 0.255v0c-1.416 0-2.125-0.722-2.125-2.167v0-4.178h-1.147v-0.907h1.147v-1.785h1.119v1.785h1.983v0.907h-1.983v4.206c0 0.765 0.359 1.147 1.077 1.147v0c0.368 0 0.694-0.109 0.977-0.325zM229.745 188.495v1.048c-0.557 0.293-1.237 0.439-2.039 0.439v0c-1.086 0-1.961-0.333-2.626-1-0.667-0.665-1-1.545-1-2.64v0c0-1.143 0.297-2.044 0.892-2.705 0.595-0.661 1.36-0.991 2.295-0.992v0c0.897 0 1.61 0.288 2.138 0.864 0.529 0.576 0.793 1.393 0.793 2.45v0c0 0.302-0.024 0.581-0.07 0.836v0h-4.901c0.085 0.708 0.354 1.251 0.807 1.629 0.453 0.378 1.048 0.567 1.785 0.566v0c0.803 0 1.445-0.165 1.926-0.495zM227.267 183.622v0c-0.538 0-0.996 0.194-1.374 0.581-0.378 0.387-0.6 0.94-0.666 1.657v0h3.852v-0.283c0-0.595-0.161-1.07-0.481-1.425-0.321-0.353-0.765-0.53-1.331-0.53zM238.697 188.665v1.062c-0.312 0.17-0.661 0.255-1.049 0.255v0c-1.416 0-2.125-0.722-2.124-2.167v0-4.178h-1.147v-0.907h1.147v-1.785h1.119v1.785h1.983v0.907h-1.983v4.206c0 0.765 0.359 1.147 1.076 1.147v0c0.368 0 0.694-0.109 0.978-0.325zM241.43 185.988v3.923h-1.119l0.014-7.181h1.105v1.261c0.378-0.888 1.029-1.331 1.955-1.332v0c0.17 0 0.302 0.009 0.396 0.029v0 1.104c-0.198-0.066-0.401-0.099-0.609-0.099v0c-0.5 0-0.916 0.231-1.246 0.694-0.33 0.463-0.496 0.996-0.496 1.601zM247.138 189.047v0c0.51 0 0.916-0.144 1.218-0.433 0.302-0.287 0.453-0.652 0.453-1.097v0-0.92h-1.246c-0.604 0-1.058 0.118-1.36 0.354-0.302 0.236-0.453 0.533-0.453 0.892 0 0.359 0.118 0.649 0.354 0.87 0.236 0.223 0.581 0.334 1.034 0.334zM248.823 189.911v-0.85c-0.368 0.614-1.039 0.921-2.011 0.921v0c-0.67 0-1.211-0.198-1.62-0.595-0.412-0.397-0.618-0.897-0.618-1.501v0c0-0.689 0.263-1.226 0.788-1.609 0.523-0.381 1.238-0.572 2.144-0.573v0h1.303v-0.368c0-0.567-0.127-0.994-0.382-1.283-0.255-0.287-0.685-0.431-1.289-0.431v0c-0.765 0-1.445 0.203-2.04 0.609v0-1.118c0.538-0.33 1.246-0.496 2.125-0.496v0c1.803 0 2.705 0.916 2.705 2.748v0 4.546zM257.676 182.73l-2.564 7.181h-1.374l-2.507-7.181h1.162l0.991 3.031 1.048 3.272c0.085-0.406 0.439-1.497 1.063-3.272v0l1.019-3.031zM264.304 188.495v1.048c-0.557 0.293-1.237 0.439-2.039 0.439v0c-1.086 0-1.961-0.333-2.626-1-0.667-0.665-1-1.545-1-2.64v0c0-1.143 0.297-2.044 0.892-2.705 0.595-0.661 1.36-0.991 2.295-0.992v0c0.897 0 1.61 0.288 2.138 0.864 0.529 0.576 0.793 1.393 0.794 2.45v0c0 0.302-0.024 0.581-0.071 0.836v0h-4.901c0.085 0.708 0.354 1.251 0.807 1.629 0.453 0.378 1.048 0.567 1.785 0.566v0c0.803 0 1.445-0.165 1.926-0.495zM261.826 183.622v0c-0.538 0-0.996 0.194-1.374 0.581-0.378 0.387-0.6 0.94-0.666 1.657v0h3.853v-0.283c0-0.595-0.161-1.07-0.482-1.425-0.321-0.353-0.765-0.53-1.331-0.53zM267.633 179.897v10.014h-1.119v-10.014zM277.901 188.594v1.062c-0.453 0.274-1.01 0.411-1.671 0.411v0c-1.133 0-2.032-0.362-2.697-1.085-0.667-0.721-1-1.601-1-2.64v0c0-1.02 0.333-1.898 1-2.635 0.665-0.737 1.573-1.105 2.725-1.104v0c0.614 0 1.161 0.132 1.643 0.396v0 1.062c-0.434-0.293-0.944-0.439-1.529-0.439v0c-0.812 0-1.461 0.262-1.946 0.785-0.487 0.525-0.731 1.175-0.731 1.949v0c0.009 0.774 0.245 1.418 0.708 1.932 0.463 0.516 1.119 0.773 1.969 0.773v0c0.548 0 1.058-0.156 1.529-0.467zM285.946 186.342v0c0 1.067-0.302 1.95-0.906 2.648-0.604 0.699-1.435 1.048-2.493 1.048v0c-1.029 0-1.843-0.347-2.442-1.042-0.601-0.693-0.901-1.568-0.901-2.626v0c0-1.067 0.31-1.957 0.929-2.671 0.618-0.712 1.422-1.068 2.414-1.068v0c1.086 0 1.924 0.349 2.515 1.048 0.589 0.699 0.884 1.586 0.884 2.663zM280.366 186.356v0c0 0.746 0.198 1.38 0.595 1.904 0.397 0.525 0.925 0.787 1.586 0.787v0c0.718 0 1.27-0.258 1.657-0.773 0.387-0.514 0.581-1.153 0.581-1.918v0c0-0.793-0.184-1.448-0.553-1.963-0.368-0.514-0.93-0.77-1.685-0.771v0c-0.68 0-1.213 0.264-1.601 0.794-0.387 0.529-0.581 1.176-0.58 1.94zM297.192 184.982v4.929h-1.119v-4.646c0-1.086-0.458-1.629-1.374-1.628v0c-0.453 0-0.859 0.205-1.218 0.614-0.359 0.412-0.538 0.991-0.538 1.737v0 3.923h-1.119v-4.646c0-1.086-0.458-1.629-1.374-1.628v0c-0.453 0-0.859 0.205-1.218 0.614-0.359 0.412-0.538 0.991-0.538 1.737v0 3.923h-1.105v-7.181h1.105v1.161c0.397-0.84 1.072-1.261 2.025-1.26v0c1.105 0 1.803 0.467 2.096 1.402v0c0.208-0.453 0.499-0.801 0.873-1.042 0.372-0.24 0.789-0.36 1.252-0.36v0c0.746 0 1.308 0.212 1.685 0.637 0.378 0.425 0.567 0.996 0.567 1.714zM300.28 188.82v3.881h-1.105v-9.971h1.105v1.091c0.5-0.803 1.242-1.204 2.223-1.204v0c0.954 0 1.702 0.347 2.247 1.039 0.542 0.695 0.813 1.562 0.813 2.601v0c0 1.105-0.285 2.008-0.856 2.711-0.572 0.704-1.316 1.057-2.232 1.056v0c-0.944 0-1.676-0.401-2.195-1.204zM300.28 186.328v0c0 0.916 0.212 1.591 0.637 2.025 0.425 0.434 0.897 0.652 1.416 0.652v0c0.604 0 1.1-0.239 1.488-0.717 0.387-0.476 0.581-1.153 0.58-2.031v0c0-0.784-0.189-1.416-0.566-1.898-0.378-0.482-0.855-0.722-1.431-0.722-0.576 0-1.074 0.21-1.493 0.628-0.421 0.421-0.632 1.109-0.631 2.063zM309.401 189.047v0c0.51 0 0.916-0.144 1.218-0.433 0.302-0.287 0.453-0.652 0.453-1.097v0-0.92h-1.246c-0.604 0-1.058 0.118-1.36 0.354-0.302 0.236-0.453 0.533-0.453 0.892 0 0.359 0.118 0.649 0.354 0.87 0.236 0.223 0.581 0.334 1.034 0.334zM311.087 189.911v-0.85c-0.368 0.614-1.039 0.921-2.012 0.921v0c-0.67 0-1.211-0.198-1.62-0.595-0.412-0.397-0.618-0.897-0.618-1.501v0c0-0.689 0.263-1.226 0.788-1.609 0.523-0.381 1.238-0.572 2.144-0.573v0h1.303v-0.368c0-0.567-0.127-0.994-0.382-1.283-0.255-0.287-0.685-0.431-1.289-0.431v0c-0.765 0-1.445 0.203-2.04 0.609v0-1.118c0.538-0.33 1.246-0.496 2.125-0.496v0c1.803 0 2.705 0.916 2.705 2.748v0 4.546zM319.84 184.968v4.943h-1.119v-4.646c0-0.529-0.134-0.933-0.403-1.212-0.27-0.278-0.622-0.416-1.056-0.416v0c-0.538 0-1.003 0.208-1.394 0.623-0.393 0.415-0.589 0.991-0.589 1.728v0 3.923h-1.105v-7.181h1.105v1.246c0.425-0.897 1.18-1.346 2.266-1.345v0c0.699 0 1.256 0.212 1.671 0.637 0.415 0.425 0.623 0.991 0.624 1.7zM322.998 182.73v7.181h-1.119v-7.181zM322.956 179.954c0.142 0.142 0.212 0.316 0.212 0.524 0 0.208-0.071 0.38-0.212 0.516-0.142 0.138-0.316 0.207-0.524 0.206-0.208 0-0.38-0.069-0.516-0.206-0.138-0.136-0.207-0.308-0.207-0.516 0-0.208 0.069-0.382 0.207-0.524 0.136-0.142 0.308-0.212 0.516-0.212 0.208 0 0.382 0.071 0.524 0.212zM331.44 186.342v0c0 1.067-0.302 1.95-0.907 2.648-0.604 0.699-1.435 1.048-2.493 1.048v0c-1.029 0-1.843-0.347-2.442-1.042-0.601-0.693-0.901-1.568-0.9-2.626v0c0-1.067 0.31-1.957 0.929-2.671 0.618-0.712 1.422-1.068 2.413-1.068v0c1.086 0 1.924 0.349 2.516 1.048 0.589 0.699 0.884 1.586 0.884 2.663zM325.859 186.356v0c0 0.746 0.198 1.38 0.595 1.904 0.397 0.525 0.925 0.787 1.586 0.787v0c0.718 0 1.27-0.258 1.657-0.773 0.387-0.514 0.581-1.153 0.581-1.918v0c0-0.793-0.184-1.448-0.552-1.963-0.368-0.514-0.93-0.77-1.686-0.771v0c-0.68 0-1.213 0.264-1.6 0.794-0.387 0.529-0.581 1.176-0.581 1.94zM338.748 184.968v4.943h-1.119v-4.646c0-0.529-0.134-0.933-0.402-1.212-0.27-0.278-0.622-0.416-1.057-0.416v0c-0.538 0-1.003 0.208-1.394 0.623-0.393 0.415-0.589 0.991-0.589 1.728v0 3.923h-1.104v-7.181h1.104v1.246c0.425-0.897 1.18-1.346 2.266-1.345v0c0.699 0 1.256 0.212 1.672 0.637 0.415 0.425 0.623 0.991 0.623 1.7zM342.02 180.365v6.657h-1.091v-6.657zM342.303 189.189v0c0 0.236-0.08 0.434-0.241 0.595-0.161 0.161-0.364 0.241-0.609 0.24-0.245 0-0.446-0.08-0.6-0.24-0.157-0.161-0.235-0.359-0.235-0.595v0c0-0.227 0.08-0.423 0.24-0.59 0.161-0.164 0.359-0.246 0.595-0.246 0.236 0 0.437 0.082 0.604 0.246 0.164 0.166 0.246 0.363 0.246 0.59z" fill="#ffffff" fill-rule="nonzero" stroke="none" stroke-width="1" stroke-linecap="butt" stroke-linejoin="miter" stroke-miterlimit="10" stroke-dasharray="" stroke-dashoffset="0" font-family="none" font-weight="none" font-size="none" text-anchor="none" style="mix-blend-mode: normal" data-fill-palette-color="secondary"></path></g></g><g transform="matrix(1,0,0,1,29.33176499999999,43.91221534514355)"><svg viewBox="0 0 316.416 46.06748930971289" height="46.06748930971289" width="316.416"><g><svg viewBox="0 0 316.416 46.06748930971289" height="46.06748930971289" width="316.416"><g><svg viewBox="0 0 316.416 46.06748930971289" height="46.06748930971289" width="316.416"><g><svg viewBox="0 0 316.416 46.06748930971289" height="46.06748930971289" width="316.416"><g id="textblocktransform"><svg viewBox="0 0 316.416 46.06748930971289" height="46.06748930971289" width="316.416" id="textblock"><g><svg viewBox="0 0 316.416 46.06748930971289" height="46.06748930971289" width="316.416"><g transform="matrix(1,0,0,1,0,0)"><svg width="316.416" viewBox="3.85 -35.35 245.52 35.75" height="46.06748930971289" data-palette-color="#61777f"><path d="M7.9-14.2L7.9 0 3.85 0 3.85-33.7 8.95-33.7 17.4-19.5 25.95-4.9Q25.75-9.75 25.75-19.45L25.75-19.45 25.75-33.7 29.8-33.7 29.8 0 24.7 0 16.25-14.1Q13.7-18.35 11.55-22.03 9.4-25.7 8.5-27.3L8.5-27.3 7.65-28.85Q7.9-23.65 7.9-14.2L7.9-14.2ZM55.8-5L55.8-1.3Q52.85 0.25 48.6 0.25L48.6 0.25Q42.85 0.25 39.32-3.28 35.8-6.8 35.8-12.6L35.8-12.6Q35.8-18.65 38.95-22.15 42.1-25.65 47.05-25.65L47.05-25.65Q51.8-25.65 54.6-22.6 57.4-19.55 57.4-13.95L57.4-13.95Q57.4-12.35 57.15-11L57.15-11 39.85-11Q40.3-7.25 42.7-5.25 45.1-3.25 49-3.25L49-3.25Q53.25-3.25 55.8-5L55.8-5ZM47.05-22.2L47.05-22.2Q44.2-22.2 42.2-20.15 40.2-18.1 39.85-14.3L39.85-14.3 53.45-14.3 53.45-15.3Q53.45-18.45 51.75-20.33 50.05-22.2 47.05-22.2ZM71.7-10L65.34 0 61 0 69.5-13 61.5-25.4 66.05-25.4 71.8-15.9 77.59-25.4 82.09-25.4 73.9-12.95 82.4 0 77.84 0 71.7-10ZM99.99-4.4L99.99-0.65Q98.34 0.25 96.29 0.25L96.29 0.25Q88.79 0.25 88.79-7.4L88.79-7.4 88.79-22.15 84.74-22.15 84.74-25.35 88.79-25.35 88.79-31.65 92.74-31.65 92.74-25.35 99.74-25.35 99.74-22.15 92.74-22.15 92.74-7.3Q92.74-3.25 96.54-3.25L96.54-3.25Q98.49-3.25 99.99-4.4L99.99-4.4ZM137.44-33.7L137.44-30.15 128.34-30.15 128.34 0 124.29 0 124.29-30.15 115.19-30.15 115.19-33.7 137.44-33.7ZM145.94-13.85L145.94 0 141.99 0 142.04-25.35 145.94-25.35 145.94-20.9Q147.94-25.6 152.84-25.6L152.84-25.6Q153.74-25.6 154.24-25.5L154.24-25.5 154.24-21.6Q153.19-21.95 152.09-21.95L152.09-21.95Q149.44-21.95 147.69-19.5 145.94-17.05 145.94-13.85L145.94-13.85ZM166.08-3.05L166.08-3.05Q168.78-3.05 170.38-4.58 171.98-6.1 171.98-8.45L171.98-8.45 171.98-11.7 167.58-11.7Q164.38-11.7 162.78-10.45 161.18-9.2 161.18-7.3 161.18-5.4 162.43-4.23 163.68-3.05 166.08-3.05ZM172.03 0L172.03-3Q170.08 0.25 164.93 0.25L164.93 0.25Q161.38 0.25 159.21-1.85 157.03-3.95 157.03-7.15L157.03-7.15Q157.03-10.8 159.81-12.83 162.58-14.85 167.38-14.85L167.38-14.85 171.98-14.85 171.98-16.15Q171.98-19.15 170.63-20.68 169.28-22.2 166.08-22.2L166.08-22.2Q162.03-22.2 158.88-20.05L158.88-20.05 158.88-24Q161.73-25.75 166.38-25.75L166.38-25.75Q175.93-25.75 175.93-16.05L175.93-16.05 175.93 0 172.03 0ZM203.28-25.35L194.23 0 189.38 0 180.53-25.35 184.63-25.35 188.13-14.65 191.83-3.1Q192.28-5.25 195.58-14.65L195.58-14.65 199.18-25.35 203.28-25.35ZM226.68-5L226.68-1.3Q223.73 0.25 219.48 0.25L219.48 0.25Q213.73 0.25 210.2-3.28 206.68-6.8 206.68-12.6L206.68-12.6Q206.68-18.65 209.83-22.15 212.98-25.65 217.93-25.65L217.93-25.65Q222.68-25.65 225.48-22.6 228.28-19.55 228.28-13.95L228.28-13.95Q228.28-12.35 228.03-11L228.03-11 210.73-11Q211.18-7.25 213.58-5.25 215.98-3.25 219.88-3.25L219.88-3.25Q224.13-3.25 226.68-5L226.68-5ZM217.93-22.2L217.93-22.2Q215.08-22.2 213.08-20.15 211.08-18.1 210.73-14.3L210.73-14.3 224.33-14.3 224.33-15.3Q224.33-18.45 222.63-20.33 220.93-22.2 217.93-22.2ZM238.43-35.35L238.43 0 234.48 0 234.48-35.35 238.43-35.35ZM248.52-4.65Q249.37-3.8 249.37-2.55 249.37-1.3 248.52-0.45 247.67 0.4 246.42 0.4 245.17 0.4 244.32-0.45 243.47-1.3 243.47-2.55 243.47-3.8 244.32-4.65 245.17-5.5 246.42-5.5 247.67-5.5 248.52-4.65Z" opacity="1" transform="matrix(1,0,0,1,0,0)" fill="#ffffff" class="wordmark-text-0" data-fill-palette-color="primary" id="text-0"></path></svg></g></svg></g></svg></g></svg></g></svg></g></svg></g></svg></g></svg></g><defs></defs></svg><rect width="375.07953" height="133.89192" fill="none" stroke="none" visibility="hidden"></rect></g></svg></g></svg>